<?xml version="1.0" encoding="UTF-8" standalone="no"?>
<!DOCTYPE svg PUBLIC "-//W3C//DTD SVG 1.1//EN" "http://www.w3.org/Graphics/SVG/1.1/DTD/svg11.dtd">
<svg width="100%" height="100%" viewBox="0 0 150 150" version="1.1" xmlns="http://www.w3.org/2000/svg" xmlns:xlink="http://www.w3.org/1999/xlink" xml:space="preserve" xmlns:serif="http://www.serif.com/" style="fill-rule:evenodd;clip-rule:evenodd;stroke-linejoin:round;stroke-miterlimit:2;">
    <g transform="matrix(-0.456522,-0.456522,0.456522,-0.456522,75,132.522)">
        <path d="M87.5,108.5L87.5,101.5L66.5,101.5L66.5,66.5L101.5,66.5L101.5,108.5L108.5,108.5L108.5,66.5L143.5,66.5L143.5,80.5L122.5,80.5L122.5,122.5L24.5,122.5L24.5,108.5L87.5,108.5ZM87.5,80.5L80.5,80.5L80.5,87.5L87.5,87.5L87.5,80.5ZM101.5,3.5L101.5,45.5L129.5,45.5L129.5,38.5L108.5,38.5L108.5,3.5L164.5,3.5L164.5,59.5L150.5,59.5L150.5,16.275L122.5,16.275L122.5,24.5L143.5,24.5L143.5,59.5L87.5,59.5L87.5,17.5L59.5,17.5L59.5,24.5L80.5,24.5L80.5,59.5L45.5,59.5L45.5,3.5L101.5,3.5ZM59.5,45.5L66.5,45.5L66.5,38.5L59.5,38.5L59.5,45.5ZM24.5,45.5L24.5,3.5L38.5,3.5L38.5,87.5L59.5,87.5L59.5,101.5L24.5,101.5L24.5,59.5L17.5,59.5L17.5,150.5L24.5,150.5L24.5,129.5L59.5,129.5L59.5,164.5L3.5,164.5L3.5,45.5L24.5,45.5ZM45.5,150.5L45.5,143.5L38.5,143.5L38.5,150.5L45.5,150.5ZM80.5,129.5L80.5,143.5L66.5,143.5L66.5,129.5L80.5,129.5ZM59.5,66.5L59.5,80.5L45.5,80.5L45.5,66.5L59.5,66.5ZM17.5,3.5L17.5,17.5L3.5,17.5L3.5,3.5L17.5,3.5ZM17.5,24.5L17.5,38.5L3.5,38.5L3.5,24.5L17.5,24.5Z" style="fill:white;"/>
    </g>
</svg>
